<svg width="900" height="220" viewBox="0 0 900 220" xmlns="http://www.w3.org/2000/svg">
  <defs>
    <linearGradient id="bg2" x1="0%" y1="0%" x2="100%" y2="100%">
      <stop offset="0%" style="stop-color:#07080e"/>
      <stop offset="100%" style="stop-color:#0c0e1a"/>
    </linearGradient>
  </defs>

  <rect width="900" height="220" fill="url(#bg2)" rx="10"/>
  <rect width="900" height="220" fill="none" stroke="#1a1e2e" stroke-width="1" rx="10"/>

  <!-- BUY CARD -->
  <rect x="20" y="20" width="415" height="180" rx="6" fill="#061209" stroke="#1a3a22" stroke-width="1"/>
  <rect x="20" y="20" width="415" height="36" rx="6" fill="#0d2e1a"/>
  <rect x="20" y="46" width="415" height="10" fill="#0d2e1a"/>
  <rect x="20" y="20" width="415" height="3" rx="2" fill="#22c55e"/>
  <text x="44" y="44" font-family="monospace" font-size="14" font-weight="bold" fill="#22c55e" letter-spacing="3">▲  BUY SIGNAL</text>

  <!-- BUY conditions -->
  <!-- Condition 1 -->
  <circle cx="42" cy="80" r="4" fill="#38bdf8"/>
  <text x="54" y="75" font-family="monospace" font-size="10" fill="#4a6a8a">TREND</text>
  <text x="54" y="89" font-family="monospace" font-size="10" fill="#c0d0e8">Multi-timeframe trend confirmed · Proprietary signal layers aligned</text>

  <!-- Condition 2 -->
  <circle cx="42" cy="115" r="4" fill="#22c55e"/>
  <text x="54" y="110" font-family="monospace" font-size="10" fill="#2a6a3a">TRIGGER</text>
  <text x="54" y="124" font-family="monospace" font-size="10" fill="#c0d0e8">%K crosses above %D  while  %K &lt; 30</text>

  <!-- Condition 3 -->
  <circle cx="42" cy="150" r="4" fill="#E8B84B"/>
  <text x="54" y="145" font-family="monospace" font-size="10" fill="#5a4010">CONFIRM ★</text>
  <text x="54" y="159" font-family="monospace" font-size="10" fill="#c0d0e8">Multi-timeframe trend confirmed · Proprietary signal layers aligned</text>

  <!-- Strength badge -->
  <rect x="30" y="174" width="395" height="18" rx="3" fill="#0a1f10" stroke="#1a3a22" stroke-width="1"/>
  <text x="228" y="187" text-anchor="middle" font-family="monospace" font-size="9" fill="#E8B84B" letter-spacing="1">★  Confirmation met  →  +25% lot size  ·  tighter SL/TP</text>

  <!-- SELL CARD -->
  <rect x="465" y="20" width="415" height="180" rx="6" fill="#120608" stroke="#3a1a1a" stroke-width="1"/>
  <rect x="465" y="20" width="415" height="36" rx="6" fill="#2e0d0d"/>
  <rect x="465" y="46" width="415" height="10" fill="#2e0d0d"/>
  <rect x="465" y="20" width="415" height="3" rx="2" fill="#f43f5e"/>
  <text x="489" y="44" font-family="monospace" font-size="14" font-weight="bold" fill="#f43f5e" letter-spacing="3">▼  SELL SIGNAL</text>

  <!-- SELL conditions -->
  <circle cx="487" cy="80" r="4" fill="#38bdf8"/>
  <text x="499" y="75" font-family="monospace" font-size="10" fill="#4a6a8a">TREND</text>
  <text x="499" y="89" font-family="monospace" font-size="10" fill="#c0d0e8">Multi-timeframe trend confirmed · Proprietary signal layers aligned</text>

  <circle cx="487" cy="115" r="4" fill="#f43f5e"/>
  <text x="499" y="110" font-family="monospace" font-size="10" fill="#6a2a2a">TRIGGER</text>
  <text x="499" y="124" font-family="monospace" font-size="10" fill="#c0d0e8">%K crosses below %D  while  %K &gt; 70</text>

  <circle cx="487" cy="150" r="4" fill="#E8B84B"/>
  <text x="499" y="145" font-family="monospace" font-size="10" fill="#5a4010">CONFIRM ★</text>
  <text x="499" y="159" font-family="monospace" font-size="10" fill="#c0d0e8">Multi-timeframe trend confirmed · Proprietary signal layers aligned</text>

  <rect x="475" y="174" width="395" height="18" rx="3" fill="#1f0a0a" stroke="#3a1a1a" stroke-width="1"/>
  <text x="673" y="187" text-anchor="middle" font-family="monospace" font-size="9" fill="#E8B84B" letter-spacing="1">★  Confirmation met  →  +25% lot size  ·  tighter SL/TP</text>
</svg>
